<svg id="图层_1" data-name="图层 1" xmlns="http://www.w3.org/2000/svg" xmlns:xlink="http://www.w3.org/1999/xlink" viewBox="0 0 170.01 37.88"><defs><style>.cls-1{fill:url(#radial-gradient);}.cls-2{fill:url(#radial-gradient-2);}.cls-3{fill:url(#radial-gradient-3);}.cls-4{fill:#fff;}</style><radialGradient id="radial-gradient" cx="709.09" cy="598.65" r="40.5" gradientTransform="matrix(1.19, 0, 0.01, 1.12, -801.81, -658.86)" gradientUnits="userSpaceOnUse"><stop offset="0.31" stop-color="#e7211a"/><stop offset="0.67" stop-color="#b41d23"/></radialGradient><radialGradient id="radial-gradient-2" cx="708.46" cy="599.72" r="17.33" gradientTransform="matrix(1.19, 0, 0.01, 1.12, -791.48, -658.08)" gradientUnits="userSpaceOnUse"><stop offset="0.36" stop-color="#961e23"/><stop offset="0.77" stop-color="#e7211a"/></radialGradient><radialGradient id="radial-gradient-3" cx="709.09" cy="598.65" r="40.5" gradientTransform="matrix(1.19, 0, 0.01, 1.12, -791.48, -658.08)" gradientUnits="userSpaceOnUse"><stop offset="0.39" stop-color="#e7211a"/><stop offset="0.63" stop-color="#b41d23"/></radialGradient></defs><title>exp-logo2</title><polygon class="cls-1" points="24.31 18.13 5.12 18.13 5.78 14.4 24.96 14.4 24.31 18.13"/><path class="cls-2" d="M54.34,3.33,73.61,33.13H63L61,29.94,42.09.78h7.31A6.25,6.25,0,0,1,54.34,3.33Z" transform="translate(-10.33 -0.78)"/><path class="cls-3" d="M103,.78H71.17c-4.62,0-6.73,2.1-6.73,2.1L35.93,27.49a7.29,7.29,0,0,1-4.88,1.89H20.19L24.58,4.51H42.12L39.47.78H20.28a4.6,4.6,0,0,0-4.91,3.73h0L11,29.38h0l-.17,1-.43,2.46h0l-.05.31H39.81a10.59,10.59,0,0,0,7-2.39L76,5.52a4.19,4.19,0,0,1,2.71-1H94.27c2.6,0,2,2,2,2l-1.51,8.54H84.37a5.39,5.39,0,0,0-5,3.54l-4,14.49h11l2.52-14.3h14.46l2.75-15.58S106.48.78,103,.78Z" transform="translate(-10.33 -0.78)"/><path class="cls-4" d="M89.81,36.05l-.17,1H91.1l0,.27H89.59l-.18,1.06h1.51l0,.27H89l.5-2.85h1.83l0,.27Z" transform="translate(-10.33 -0.78)"/><path class="cls-4" d="M95.6,36.64l-.81.94.54,1.06H95l-.39-.81-.67.81h-.35l.91-1-.48-1h.35l.33.73.58-.73Z" transform="translate(-10.33 -0.78)"/><path class="cls-4" d="M99.55,36.64l0,.24h-.77l-.22,1.22a.52.52,0,0,0,0,.21.12.12,0,0,0,.09.09h.15a.3.3,0,0,0,.26-.09.72.72,0,0,0,.1-.3v-.1h.27c0,.07,0,.12,0,.16a.79.79,0,0,1-.17.4.66.66,0,0,1-.5.18.65.65,0,0,1-.4-.09.32.32,0,0,1-.09-.3,1.4,1.4,0,0,1,0-.16l.22-1.22h-.28l0-.24h.28l.08-.48h.29l-.09.48Z" transform="translate(-10.33 -0.78)"/><path class="cls-4" d="M102.48,36.64h.29l-.07.23h0a.66.66,0,0,1,.25-.21.91.91,0,0,1,.38-.07.49.49,0,0,1,.39.14.51.51,0,0,1,.06.42l0,.15h-.29l0-.16a.32.32,0,0,0,0-.2c0-.06-.13-.1-.26-.1a.52.52,0,0,0-.47.21,1.11,1.11,0,0,0-.12.39l-.21,1.2h-.29Z" transform="translate(-10.33 -0.78)"/><path class="cls-4" d="M107.95,38h.3v.09a.57.57,0,0,1-.23.4.73.73,0,0,1-.29.11,2.36,2.36,0,0,1-.46,0c-.35,0-.58-.07-.67-.2a.62.62,0,0,1-.08-.4,3.2,3.2,0,0,1,0-.42,3.51,3.51,0,0,1,.12-.49.91.91,0,0,1,.16-.29.65.65,0,0,1,.37-.21,2.15,2.15,0,0,1,.41,0,1.31,1.31,0,0,1,.57.09q.23.13.18.61c0,.07,0,.2-.06.38h-1.44a1.68,1.68,0,0,0,0,.53q0,.15.23.18l.24,0a1.73,1.73,0,0,0,.42,0,.27.27,0,0,0,.19-.2S107.94,38.1,107.95,38Zm.1-.57a1.66,1.66,0,0,0,0-.42.22.22,0,0,0-.18-.18,1.29,1.29,0,0,0-.29,0,1.2,1.2,0,0,0-.39,0,.48.48,0,0,0-.26.35c0,.05,0,.13,0,.22Z" transform="translate(-10.33 -0.78)"/><path class="cls-4" d="M111.52,36.64h.29l-.06.3h0a.69.69,0,0,1,.23-.23,1,1,0,0,1,.49-.11c.34,0,.52.11.56.34h0a.76.76,0,0,1,.26-.23,1.07,1.07,0,0,1,.49-.11c.31,0,.5.08.57.25a.9.9,0,0,1,0,.48l-.23,1.3h-.29l.23-1.33a.64.64,0,0,0,0-.3c0-.1-.15-.15-.36-.15a.66.66,0,0,0-.6.23,1.22,1.22,0,0,0-.12.39l-.2,1.15h-.29l.23-1.3c0-.14,0-.22,0-.24a.29.29,0,0,0,0-.08c0-.1-.16-.15-.38-.15a.65.65,0,0,0-.56.23,1,1,0,0,0-.15.42l-.2,1.13h-.29Z" transform="translate(-10.33 -0.78)"/><path class="cls-4" d="M118.77,38h.3a.68.68,0,0,1,0,.09.56.56,0,0,1-.23.4.71.71,0,0,1-.29.11,2.3,2.3,0,0,1-.45,0c-.35,0-.58-.07-.67-.2a.65.65,0,0,1-.08-.4,3.92,3.92,0,0,1,.05-.42,3.06,3.06,0,0,1,.12-.49.85.85,0,0,1,.16-.29.64.64,0,0,1,.37-.21,2.15,2.15,0,0,1,.41,0,1.3,1.3,0,0,1,.57.09c.16.09.22.29.18.61l-.06.38h-1.44a1.73,1.73,0,0,0,0,.53q0,.15.23.18l.24,0a1.74,1.74,0,0,0,.42,0,.28.28,0,0,0,.18-.2S118.75,38.1,118.77,38Zm.1-.57a1.61,1.61,0,0,0,0-.42.22.22,0,0,0-.18-.18,1.28,1.28,0,0,0-.29,0,1.2,1.2,0,0,0-.39,0,.48.48,0,0,0-.26.35,2,2,0,0,0,0,.22Z" transform="translate(-10.33 -0.78)"/><path class="cls-4" d="M125.64,38.63l.5-2.85h1.48a.85.85,0,0,1,.32.07.37.37,0,0,1,.17.19,1.15,1.15,0,0,1,0,.61,1.37,1.37,0,0,1-.19.54.7.7,0,0,1-.43.29,4.15,4.15,0,0,1-.53,0h-.82l-.2,1.12Zm.56-1.4H127a1.77,1.77,0,0,0,.52,0,.41.41,0,0,0,.24-.23,1.13,1.13,0,0,0,.07-.26,1.54,1.54,0,0,0,0-.44.22.22,0,0,0-.19-.19l-.37,0h-.87Z" transform="translate(-10.33 -0.78)"/><path class="cls-4" d="M132.16,38h.3v.09a.56.56,0,0,1-.23.4.73.73,0,0,1-.29.11,2.35,2.35,0,0,1-.46,0c-.35,0-.58-.07-.67-.2a.63.63,0,0,1-.08-.4,3.55,3.55,0,0,1,.05-.42,3.5,3.5,0,0,1,.12-.49.88.88,0,0,1,.16-.29.64.64,0,0,1,.37-.21,2.15,2.15,0,0,1,.41,0,1.29,1.29,0,0,1,.56.09c.16.09.22.29.18.61,0,.07,0,.2-.06.38h-1.44a1.72,1.72,0,0,0,0,.53c0,.1.1.16.23.18l.24,0a1.72,1.72,0,0,0,.42,0,.27.27,0,0,0,.19-.2A1.21,1.21,0,0,0,132.16,38Zm.1-.57a1.55,1.55,0,0,0,0-.42.22.22,0,0,0-.18-.18,1.31,1.31,0,0,0-.29,0,1.2,1.2,0,0,0-.39,0,.49.49,0,0,0-.26.35,2,2,0,0,0,0,.22Z" transform="translate(-10.33 -0.78)"/><path class="cls-4" d="M135.77,36.64h.29l-.07.23h0a.65.65,0,0,1,.24-.21.92.92,0,0,1,.38-.07.5.5,0,0,1,.39.14.51.51,0,0,1,.06.42l0,.15h-.29l0-.16a.29.29,0,0,0,0-.2c0-.06-.13-.1-.26-.1A.51.51,0,0,0,136,37a1.22,1.22,0,0,0-.12.39l-.21,1.2h-.29Z" transform="translate(-10.33 -0.78)"/><path class="cls-4" d="M139.88,38.63l.31-1.75h-.31l0-.24h.3l.05-.3a.77.77,0,0,1,.16-.39.72.72,0,0,1,.55-.19h.22l0,.24h-.23a.36.36,0,0,0-.29.11.46.46,0,0,0-.08.21l-.06.32h.54l0,.24h-.55l-.31,1.75Z" transform="translate(-10.33 -0.78)"/><path class="cls-4" d="M144.78,36.6a2.1,2.1,0,0,1,.4,0,.47.47,0,0,1,.22.11.5.5,0,0,1,.12.38,4,4,0,0,1-.06.51,2.45,2.45,0,0,1-.2.67.62.62,0,0,1-.2.22.77.77,0,0,1-.29.11l-.38,0a2,2,0,0,1-.41,0,.42.42,0,0,1-.22-.11.48.48,0,0,1-.12-.38,3.39,3.39,0,0,1,.05-.49,2.34,2.34,0,0,1,.2-.69.66.66,0,0,1,.49-.33A2.55,2.55,0,0,1,144.78,36.6Zm-.07.25a.84.84,0,0,0-.45.08.49.49,0,0,0-.16.28,3.8,3.8,0,0,0-.09.4,2.48,2.48,0,0,0-.06.56.22.22,0,0,0,.09.18,1,1,0,0,0,.4.05.89.89,0,0,0,.46-.08.49.49,0,0,0,.16-.28q0-.18.09-.42a2.44,2.44,0,0,0,.05-.54.23.23,0,0,0-.09-.18A1,1,0,0,0,144.71,36.85Z" transform="translate(-10.33 -0.78)"/><path class="cls-4" d="M148.7,36.64H149l-.07.23h0a.65.65,0,0,1,.24-.21.92.92,0,0,1,.38-.07.5.5,0,0,1,.39.14.51.51,0,0,1,.06.42l0,.15h-.29l0-.16a.29.29,0,0,0,0-.2c0-.06-.13-.1-.26-.1A.51.51,0,0,0,149,37a1.11,1.11,0,0,0-.12.39l-.21,1.2h-.29Z" transform="translate(-10.33 -0.78)"/><path class="cls-4" d="M153,36.64h.29l-.06.3h0a.67.67,0,0,1,.23-.23,1,1,0,0,1,.49-.11c.34,0,.52.11.56.34h0a.75.75,0,0,1,.26-.23,1.07,1.07,0,0,1,.49-.11q.46,0,.57.25a.9.9,0,0,1,0,.48l-.23,1.3h-.29l.24-1.33a.66.66,0,0,0,0-.3c0-.1-.15-.15-.36-.15s-.51.08-.6.23a1.14,1.14,0,0,0-.12.39l-.21,1.15H154l.23-1.3a2.4,2.4,0,0,0,0-.24.17.17,0,0,0,0-.08c0-.1-.16-.15-.38-.15a.65.65,0,0,0-.56.23,1,1,0,0,0-.15.42l-.2,1.13h-.29Z" transform="translate(-10.33 -0.78)"/><path class="cls-4" d="M159.3,37.19H159a.91.91,0,0,1,.14-.38.54.54,0,0,1,.32-.17,2.29,2.29,0,0,1,.43,0,1.34,1.34,0,0,1,.53.08.39.39,0,0,1,.2.42,1.93,1.93,0,0,1,0,.22l-.23,1.32h-.29l.06-.21h0a.68.68,0,0,1-.19.16,1.25,1.25,0,0,1-.53.09,1.56,1.56,0,0,1-.37,0,.46.46,0,0,1-.21-.12.51.51,0,0,1-.07-.45,1.09,1.09,0,0,1,.11-.32.49.49,0,0,1,.17-.2,1.15,1.15,0,0,1,.6-.12,1.33,1.33,0,0,1,.49.07.23.23,0,0,1,.12.14h0l0-.24a1,1,0,0,0,0-.39.2.2,0,0,0-.16-.13,1.19,1.19,0,0,0-.27,0,.91.91,0,0,0-.46.08.3.3,0,0,0-.12.22S159.3,37.17,159.3,37.19Zm.4.45a.94.94,0,0,0-.5.09.45.45,0,0,0-.12.28c0,.16,0,.27,0,.32a.7.7,0,0,0,.4.08,1,1,0,0,0,.56-.12.39.39,0,0,0,.13-.25c0-.15,0-.24,0-.3A.72.72,0,0,0,159.7,37.65Z" transform="translate(-10.33 -0.78)"/><path class="cls-4" d="M163.84,36.64h.29l-.06.27h0a.59.59,0,0,1,.14-.16,1,1,0,0,1,.58-.15c.33,0,.53.09.61.26a1,1,0,0,1,0,.47l-.23,1.3h-.29l.22-1.27a.86.86,0,0,0,0-.35c0-.1-.16-.15-.39-.15a.94.94,0,0,0-.39.07.54.54,0,0,0-.28.33,1.14,1.14,0,0,0,0,.18l-.21,1.2h-.3Z" transform="translate(-10.33 -0.78)"/><path class="cls-4" d="M169.76,37.91H170l0,.1a.74.74,0,0,1-.28.51.75.75,0,0,1-.27.11,2.18,2.18,0,0,1-.42,0c-.34,0-.56-.07-.65-.2a.61.61,0,0,1-.09-.38c0-.13,0-.29.06-.46a3.21,3.21,0,0,1,.11-.46.9.9,0,0,1,.15-.28.92.92,0,0,1,.77-.28,1.18,1.18,0,0,1,.59.11.4.4,0,0,1,.16.39s0,.1,0,.18h-.29v0a.34.34,0,0,0,0-.29.28.28,0,0,0-.15-.07l-.31,0a.55.55,0,0,0-.46.15,1.82,1.82,0,0,0-.2.67c-.06.36-.05.58,0,.67a.8.8,0,0,0,.45.07,1,1,0,0,0,.34,0,.29.29,0,0,0,.17-.16A1.16,1.16,0,0,0,169.76,37.91Z" transform="translate(-10.33 -0.78)"/><path class="cls-4" d="M174.4,38h.3v.09a.56.56,0,0,1-.23.4.73.73,0,0,1-.29.11,2.37,2.37,0,0,1-.46,0c-.35,0-.58-.07-.67-.2a.63.63,0,0,1-.08-.4,4.23,4.23,0,0,1,.17-.92.82.82,0,0,1,.16-.29.64.64,0,0,1,.37-.21,2.12,2.12,0,0,1,.41,0,1.3,1.3,0,0,1,.57.09q.24.13.18.61c0,.07,0,.2-.06.38h-1.44a1.58,1.58,0,0,0,0,.53c0,.1.1.16.23.18l.24,0a1.72,1.72,0,0,0,.42,0,.27.27,0,0,0,.19-.2S174.38,38.1,174.4,38Zm.1-.57a1.68,1.68,0,0,0,0-.42.22.22,0,0,0-.18-.18,1.28,1.28,0,0,0-.29,0,1.2,1.2,0,0,0-.39,0,.48.48,0,0,0-.26.35,1.91,1.91,0,0,0,0,.22Z" transform="translate(-10.33 -0.78)"/><path class="cls-4" d="M134.47,21.79,127.81,33h-4.52l-2.83-11.21h3.13l2.18,8.46H126l5.21-8.45Z" transform="translate(-10.33 -0.78)"/><path class="cls-4" d="M180.34,21.79,174.57,33h-4.4l-.78-5.59Q169.2,26,169,24.5l-.12-1h-.08l-.46,1q-.66,1.39-1.4,2.91L164.22,33h-4.47L158,21.79h3l1.3,8.44h.21l4.64-8.44h4l1.36,8.47h.22l4.7-8.47Z" transform="translate(-10.33 -0.78)"/><path class="cls-4" d="M89.68,33.13h3l1-5.81h0s.38-1.9.46-2.13a2.37,2.37,0,0,1,1.66-1.65,10.57,10.57,0,0,1,2.55-.22,11.68,11.68,0,0,1,2,.11q1.06.18,1.29.82a5.16,5.16,0,0,1-.05,1.9h3c0-.2,0-.37.06-.5q.25-2.7-1.59-3.5a12.14,12.14,0,0,0-4.38-.55,17.72,17.72,0,0,0-3.7.3,4.75,4.75,0,0,0-3.24,2.17,10.38,10.38,0,0,0-1,3.21h0Z" transform="translate(-10.33 -0.78)"/><path class="cls-4" d="M117.83,22.21a12.14,12.14,0,0,0-4.38-.55,17.59,17.59,0,0,0-3.7.3,4.76,4.76,0,0,0-3.24,2.17,10.36,10.36,0,0,0-1,3.21,14.6,14.6,0,0,0-.24,2.37,2.91,2.91,0,0,0,.67,2.14,3.74,3.74,0,0,0,1.92,1,17,17,0,0,0,3.62.3q1.51,0,2.89-.12a7.33,7.33,0,0,0,2.69-.73,3.19,3.19,0,0,0,1.67-2.43c0-.09,0-.22.06-.36h-3c-.07.35-.13.6-.18.75a1.56,1.56,0,0,1-1.24,1,13.42,13.42,0,0,1-2.66.19c-1.57,0-2.57-.18-3-.55a1.71,1.71,0,0,1-.43-1.28,10.12,10.12,0,0,1,.19-1.8l.3-1.5a6.78,6.78,0,0,1,.25-1,2.3,2.3,0,0,1,1.61-1.66,10.72,10.72,0,0,1,2.55-.22,11.39,11.39,0,0,1,2,.12c.71.12,1.14.4,1.29.82a4.24,4.24,0,0,1-.16,2H110.2l-.26,1.5h9.16q.26-1.48.32-2.07Q119.67,23,117.83,22.21Z" transform="translate(-10.33 -0.78)"/><path class="cls-4" d="M155.49,22.21a12.15,12.15,0,0,0-4.38-.55,17.59,17.59,0,0,0-3.7.3,4.76,4.76,0,0,0-3.24,2.17,10.4,10.4,0,0,0-1,3.21,15,15,0,0,0-.25,2.37,2.91,2.91,0,0,0,.67,2.14,3.74,3.74,0,0,0,1.92,1,17,17,0,0,0,3.62.3c1,0,2,0,2.9-.12a7.37,7.37,0,0,0,2.69-.73,3.19,3.19,0,0,0,1.66-2.43c0-.09,0-.22.06-.36h-3c-.07.35-.13.6-.18.75a1.57,1.57,0,0,1-1.24,1,13.46,13.46,0,0,1-2.66.19,5.15,5.15,0,0,1-3-.55,1.72,1.72,0,0,1-.43-1.28,10.25,10.25,0,0,1,.19-1.8l.3-1.5a6.57,6.57,0,0,1,.25-1,2.3,2.3,0,0,1,1.61-1.66,10.72,10.72,0,0,1,2.55-.22,11.39,11.39,0,0,1,2,.12q1.06.18,1.29.82a4.23,4.23,0,0,1-.16,2h-6.08l-.26,1.5h9.16q.26-1.48.32-2.07Q157.33,23,155.49,22.21Z" transform="translate(-10.33 -0.78)"/><path class="cls-4" d="M139.62,30.45h0l2.59-17.3s.15-.94-.08-1-.62.84-.62.84L134.63,29.2h0a2.46,2.46,0,0,0-.14.41,2.61,2.61,0,1,0,5.06,1.27A2.54,2.54,0,0,0,139.62,30.45Z" transform="translate(-10.33 -0.78)"/><path class="cls-4" d="M139.46,30.41h0l2.62-16.87s.14-.88-.07-.94-.58.78-.58.78l-6.64,15.85h0a2.44,2.44,0,1,0,4.6,1.57A2.41,2.41,0,0,0,139.46,30.41Z" transform="translate(-10.33 -0.78)"/><circle class="cls-4" cx="126.79" cy="29.34" r="1.88"/><circle class="cls-4" cx="137.08" cy="30.11" r="1.62" transform="translate(-9.57 62.7) rotate(-26.15)"/><path class="cls-4" d="M138.44,30.52a1.42,1.42,0,0,0-2.59-1.12h.05Zm-.73.86a1.41,1.41,0,0,0,.56-.49l-2.52-1.1,0,0a1.39,1.39,0,0,0,.1,1A1.42,1.42,0,0,0,137.71,31.38Z" transform="translate(-10.33 -0.78)"/><path class="cls-4" d="M111.3,16.84c9-7.64,21.4-11.8,33.09-11.8s21.09,4.16,29.82,11.8h4.63A49.33,49.33,0,0,0,144.43,3a51,51,0,0,0-34.89,13.86Z" transform="translate(-10.33 -0.78)"/><polygon class="cls-4" points="136.93 9.99 135.36 9.77 136.54 6.17 138.33 6.39 136.93 9.99"/><polygon class="cls-4" points="113.13 13.83 114.28 12.78 111.98 10.97 110.27 12.05 113.13 13.83"/><polygon class="cls-4" points="156.26 16.46 155.17 15.57 157.19 13.65 158.82 14.72 156.26 16.46"/></svg>